<?xml version="1.0" standalone="no"?>
<!DOCTYPE svg PUBLIC "-//W3C//DTD SVG 20010904//EN"
 "http://www.w3.org/TR/2001/REC-SVG-20010904/DTD/svg10.dtd">
<svg version="1.0" xmlns="http://www.w3.org/2000/svg"
 width="256.000000pt" height="256.000000pt" viewBox="0 0 256.000000 256.000000"
 preserveAspectRatio="xMidYMid meet">
<metadata>
Created by potrace 1.14, written by Peter Selinger 2001-2017
</metadata>
<g transform="translate(0.000000,256.000000) scale(0.100000,-0.100000)"
fill="#000000" stroke="none">
<path d="M1125 2553 c-11 -2 -56 -11 -100 -19 -147 -28 -305 -94 -449 -188
-270 -176 -494 -515 -546 -826 -25 -147 -30 -188 -30 -240 0 -77 36 -286 66
-383 30 -95 124 -291 157 -327 13 -14 37 -45 54 -70 74 -107 187 -211 332
-305 315 -203 759 -251 1116 -118 390 145 680 458 796 858 30 103 32 123 37
305 5 211 -2 276 -45 420 -32 107 -126 293 -195 384 -201 267 -490 444 -816
500 -85 15 -324 21 -377 9z m321 -198 c176 -28 302 -78 443 -175 97 -66 286
-253 260 -258 -7 -1 -54 15 -104 37 -88 38 -90 38 -125 23 -19 -9 -37 -18 -39
-19 -2 -1 12 -22 31 -45 33 -41 58 -80 58 -92 0 -3 -22 8 -49 24 -26 17 -51
30 -55 30 -14 0 -5 -77 13 -105 10 -16 45 -57 77 -91 32 -34 79 -88 104 -122
41 -55 50 -62 97 -73 28 -6 56 -15 62 -18 13 -9 1 -49 -45 -148 -19 -40 -31
-73 -29 -73 3 0 27 11 53 24 51 26 121 94 145 141 9 17 16 23 17 15 0 -8 5
-44 10 -80 11 -76 -8 -266 -39 -370 -37 -129 -102 -259 -187 -370 -46 -61
-188 -200 -204 -200 -6 0 -8 20 -4 55 5 42 3 60 -10 80 -16 24 -16 28 3 63 12
20 36 81 56 135 19 56 58 137 90 186 53 84 55 91 55 155 0 37 -5 87 -11 112
-11 42 -14 45 -38 39 -66 -16 -158 -59 -180 -83 -142 -161 -132 -140 -125
-250 4 -54 10 -101 14 -107 7 -9 18 -47 34 -117 9 -41 -13 -36 -126 27 -86 49
-102 55 -134 49 -47 -9 -54 2 -54 95 0 55 5 81 19 105 11 17 24 50 30 74 7 23
16 42 22 42 5 0 30 32 55 70 51 80 63 129 62 276 0 60 -5 101 -14 119 -8 16
-12 42 -9 59 3 17 7 68 10 113 l5 82 -35 38 c-41 43 -40 44 -93 -47 -28 -48
-39 -60 -61 -60 -9 0 -12 9 -9 30 4 27 -2 35 -63 80 -37 27 -72 50 -78 50 -6
0 -10 20 -10 49 1 37 5 48 17 47 8 0 17 5 19 12 3 9 -12 12 -57 12 -37 0 -73
6 -92 16 -23 12 -48 15 -94 11 -57 -4 -63 -3 -75 19 -18 35 -89 33 -177 -4
-37 -16 -114 -43 -172 -61 -96 -29 -109 -36 -148 -79 -42 -47 -55 -79 -27 -69
25 10 28 -13 6 -64 -28 -65 -27 -186 2 -181 15 3 17 -7 17 -80 0 -46 7 -114
16 -153 8 -38 18 -81 21 -95 4 -24 7 -23 53 30 27 30 55 54 64 52 8 -1 17 7
21 18 12 38 35 20 42 -34 2 -17 9 -51 17 -76 13 -43 14 -44 24 -20 67 168 55
151 149 208 48 28 89 50 91 47 3 -2 -3 -16 -12 -30 -17 -25 -16 -29 8 -93 37
-96 36 -99 -31 -112 -39 -8 -72 -23 -100 -46 -23 -19 -46 -34 -51 -34 -22 0
-85 -63 -131 -131 -51 -77 -89 -106 -168 -129 -40 -12 -44 -11 -127 30 -48 24
-89 41 -91 38 -6 -6 13 -186 20 -198 6 -10 149 -60 173 -60 30 0 74 40 69 61
-5 18 3 23 32 20 7 -2 20 1 30 5 9 4 21 8 26 8 14 1 62 36 91 65 13 13 24 19
24 13 0 -22 -38 -98 -59 -116 -14 -13 -20 -30 -19 -55 2 -57 -12 -123 -34
-160 -11 -21 -17 -43 -14 -57 5 -17 0 -26 -16 -35 -13 -6 -33 -21 -45 -32 -26
-23 -23 -25 -117 63 -45 42 -126 142 -126 155 0 3 9 1 21 -5 41 -23 29 -2 -20
33 -41 30 -57 51 -90 119 -191 399 -127 859 168 1196 110 126 312 261 476 317
147 50 342 66 501 40z m-21 -641 c13 -8 21 -22 19 -29 -3 -7 -1 -23 5 -34 14
-25 9 -28 -118 -70 -74 -25 -96 -29 -103 -19 -12 20 -10 26 12 33 11 3 20 12
20 19 0 16 71 82 108 102 33 17 28 17 57 -2z m14 -841 c7 -43 14 -87 15 -98 2
-11 6 -27 10 -36 9 -20 -56 -53 -73 -36 -7 7 -11 55 -11 129 0 117 0 118 24
118 21 0 24 -6 35 -77z m-269 -10 c1 -10 18 -61 39 -113 21 -52 37 -98 34
-102 -2 -5 -11 -8 -20 -8 -8 0 -28 -9 -44 -21 -27 -19 -153 -48 -164 -37 -3 2
-8 19 -11 36 -7 33 -9 30 89 120 17 16 35 49 45 84 17 57 32 75 32 41z m-208
-105 c-3 -18 -13 -41 -23 -51 -15 -14 -17 -22 -9 -38 6 -11 10 -45 8 -76 l-3
-57 -75 -23 c-41 -13 -81 -23 -87 -23 -20 0 -15 34 11 94 13 29 27 68 31 86 5
24 20 40 60 66 30 18 56 38 60 44 14 23 31 9 27 -22z"/>
</g>
</svg>
